<?xml version="1.0" encoding="UTF-8" standalone="no"?>
<!DOCTYPE svg PUBLIC "-//W3C//DTD SVG 1.1//EN"
 "http://www.w3.org/Graphics/SVG/1.1/DTD/svg11.dtd">
<!-- Generated by graphviz version 2.38.0 (20140413.2041)
 -->
<!-- Title: grafana_images Pages: 1 -->
<svg width="165pt" height="260pt" viewBox="0.00 0.00 164.77 260.00" xmlns="http://www.w3.org/2000/svg" xmlns:xlink="http://www.w3.org/1999/xlink">
  <g id="graph0" class="graph" transform="scale(1 1) rotate(0) translate(4 256)">
    <title>grafana_images</title>
    <polygon fill="white" stroke="none" points="-4,4 -4,-256 160.769,-256 160.769,4 -4,4"/>
    <!-- HipChat -->
    <g id="node1" class="node"><title>HipChat</title>
      <polygon fill="none" stroke="black" points="106.393,-252 -0.131182,-252 -0.131182,-216 106.393,-216 106.393,-252"/>
      <text text-anchor="middle" x="53.1309" y="-229.8" font-family="Helvetica,sans-Serif" font-size="14.00">HipChat Client</text>
    </g>
    <!-- Hubot -->
    <g id="node4" class="node"><title>Hubot</title>
      <polygon fill="none" stroke="black" points="104.81,-180 1.45199,-180 1.45199,-176 -2.54801,-176 -2.54801,-172 1.45199,-172 1.45199,-152 -2.54801,-152 -2.54801,-148 1.45199,-148 1.45199,-144 104.81,-144 104.81,-180"/>
      <polyline fill="none" stroke="black" points="1.45199,-176 5.45199,-176 5.45199,-172 1.45199,-172 "/>
      <polyline fill="none" stroke="black" points="1.45199,-152 5.45199,-152 5.45199,-148 1.45199,-148 "/>
      <text text-anchor="middle" x="53.1309" y="-157.8" font-family="Helvetica,sans-Serif" font-size="14.00">hubot&#45;grafana</text>
    </g>
    <!-- HipChat&#45;&gt;Hubot -->
    <g id="edge1" class="edge"><title>HipChat&#45;&gt;Hubot</title>
      <path fill="none" stroke="black" d="M13.9344,-216C13.9344,-216 13.9344,-190 13.9344,-190"/>
      <polygon fill="black" stroke="black" points="17.4345,-190 13.9344,-180 10.4345,-190 17.4345,-190"/>
      <text text-anchor="middle" x="10" y="-196" font-family="Helvetica,sans-Serif" font-size="14.00">1</text>
    </g>
    <!-- Hubot&#45;&gt;Grafana -->
    <g id="edge2" class="edge"><title>Hubot&#45;&gt;Grafana</title>
      <path fill="none" stroke="black" d="M19.1598,-143.762C19.1598,-143.762 19.1598,-46.0896 19.1598,-46.0896"/>
      <polygon fill="black" stroke="black" points="22.6599,-46.0896 19.1598,-36.0896 15.6599,-46.0897 22.6599,-46.0896"/>
      <text text-anchor="middle" x="14" y="-97.726" font-family="Helvetica,sans-Serif" font-size="14.00">2</text>
    </g>
    <!-- Grafana -->
    <g id="node2" class="node"><title>Grafana</title>
      <polygon fill="none" stroke="black" points="99.4067,-36 6.85506,-36 6.85506,-0 99.4067,-0 99.4067,-36"/>
      <text text-anchor="middle" x="53.1309" y="-13.8" font-family="Helvetica,sans-Serif" font-size="14.00">Grafana API</text>
    </g>
    <!-- GrafanaImages -->
    <g id="node3" class="node"><title>GrafanaImages</title>
      <polygon fill="lightskyblue" stroke="black" points="156.907,-108 43.3551,-108 43.3551,-104 39.3551,-104 39.3551,-100 43.3551,-100 43.3551,-80 39.3551,-80 39.3551,-76 43.3551,-76 43.3551,-72 156.907,-72 156.907,-108"/>
      <polyline fill="none" stroke="black" points="43.3551,-104 47.3551,-104 47.3551,-100 43.3551,-100 "/>
      <polyline fill="none" stroke="black" points="43.3551,-80 47.3551,-80 47.3551,-76 43.3551,-76 "/>
      <text text-anchor="middle" x="100.131" y="-85.8" font-family="Helvetica,sans-Serif" font-size="14.00">grafana&#45;images</text>
    </g>
    <!-- Grafana&#45;&gt;Hubot -->
    <g id="edge3" class="edge"><title>Grafana&#45;&gt;Hubot</title>
      <path fill="none" stroke="black" d="M31.3265,-36.2377C31.3265,-36.2377 31.3265,-133.91 31.3265,-133.91"/>
      <polygon fill="black" stroke="black" points="27.8266,-133.91 31.3265,-143.91 34.8266,-133.91 27.8266,-133.91"/>
      <text text-anchor="middle" x="27" y="-87.874" font-family="Helvetica,sans-Serif" font-size="14.00">3</text>
    </g>
    <!-- Hubot&#45;&gt;GrafanaImages -->
    <g id="edge4" class="edge"><title>Hubot&#45;&gt;GrafanaImages</title>
      <path fill="none" stroke="black" d="M50.3112,-144C50.3112,-144 50.3112,-118 50.3112,-118"/>
      <polygon fill="black" stroke="black" points="53.8113,-118 50.3112,-108 46.8113,-118 53.8113,-118"/>
      <text text-anchor="middle" x="46" y="-122" font-family="Helvetica,sans-Serif" font-size="14.00">4</text>
    </g>
    <!-- GrafanaImages&#45;&gt;Grafana -->
    <g id="edge5" class="edge"><title>GrafanaImages&#45;&gt;Grafana</title>
      <path fill="none" stroke="black" d="M62.085,-71.8314C62.085,-71.8314 62.085,-46.4133 62.085,-46.4133"/>
      <polygon fill="black" stroke="black" points="65.5851,-46.4132 62.085,-36.4133 58.5851,-46.4133 65.5851,-46.4132"/>
      <text text-anchor="middle" x="57.5" y="-50" font-family="Helvetica,sans-Serif" font-size="14.00">5</text>
    </g>
    <!-- Grafana&#45;&gt;GrafanaImages -->
    <g id="edge6" class="edge"><title>Grafana&#45;&gt;GrafanaImages</title>
      <path fill="none" stroke="black" d="M80.6768,-36.1686C80.6768,-36.1686 80.6768,-61.5867 80.6768,-61.5867"/>
      <polygon fill="black" stroke="black" points="77.1769,-61.5867 80.6768,-71.5867 84.1769,-61.5868 77.1769,-61.5867"/>
      <text text-anchor="middle" x="76" y="-50" font-family="Helvetica,sans-Serif" font-size="14.00">6</text>
    </g>
    <!-- GrafanaImages&#45;&gt;Hubot -->
    <g id="edge7" class="edge"><title>GrafanaImages&#45;&gt;Hubot</title>
      <path fill="none" stroke="black" d="M86.9022,-108C86.9022,-108 86.9022,-134 86.9022,-134"/>
      <polygon fill="black" stroke="black" points="83.4023,-134 86.9022,-144 90.4023,-134 83.4023,-134"/>
      <text text-anchor="middle" x="82" y="-120" font-family="Helvetica,sans-Serif" font-size="14.00">7</text>
    </g>
    <!-- Hubot&#45;&gt;HipChat -->
    <g id="edge8" class="edge"><title>Hubot&#45;&gt;HipChat</title>
      <path fill="none" stroke="black" d="M95.3273,-180C95.3273,-180 95.3273,-206 95.3273,-206"/>
      <polygon fill="black" stroke="black" points="91.8274,-206 95.3273,-216 98.8274,-206 91.8274,-206"/>
      <text text-anchor="middle" x="90" y="-193" font-family="Helvetica,sans-Serif" font-size="14.00">8</text>
    </g>
  </g>
</svg>
